<?xml version="1.0" standalone="no"?>
<!DOCTYPE svg PUBLIC "-//W3C//DTD SVG 20010904//EN"
 "http://www.w3.org/TR/2001/REC-SVG-20010904/DTD/svg10.dtd">
<svg version="1.0" xmlns="http://www.w3.org/2000/svg"
 width="508.000000pt" height="484.000000pt" viewBox="0 0 508.000000 484.000000"
 preserveAspectRatio="xMidYMid meet">
<g transform="translate(0.000000,484.000000) scale(0.100000,-0.100000)"
fill="#dc2626" stroke="#dc2626" stroke-width="80">
<path d="M4148 4354 c-82 -19 -171 -66 -593 -312 -99 -57 -223 -129 -275 -159
-52 -31 -112 -66 -132 -79 -21 -13 -44 -24 -53 -24 -8 0 -140 34 -292 76 -375
104 -723 193 -749 194 -12 0 -89 -33 -172 -74 -151 -75 -171 -92 -156 -131 4
-10 140 -106 303 -212 365 -240 376 -248 376 -264 0 -14 -331 -219 -353 -219
-8 0 -93 25 -190 56 -98 31 -197 57 -222 57 -61 2 -206 -58 -233 -95 -18 -24
-19 -31 -8 -52 11 -20 131 -132 255 -238 l30 -25 -32 -44 c-31 -41 -40 -82
-24 -105 14 -21 48 -32 132 -43 47 -6 114 -15 150 -21 36 -6 99 -15 142 -20
l76 -10 149 54 c82 30 258 98 392 151 134 52 246 94 248 91 2 -2 -2 -17 -10
-33 -23 -44 -147 -401 -147 -422 0 -10 9 -30 21 -45 29 -37 57 -34 254 33
l170 57 210 306 c224 326 408 580 447 614 12 12 91 63 173 114 382 236 517
341 596 463 69 106 62 185 -21 260 -114 102 -295 142 -462 101z m264 -164 c47
-14 98 -56 98 -80 0 -28 -72 -113 -147 -173 -37 -30 -171 -118 -298 -197 -126
-78 -253 -157 -281 -176 -45 -29 -82 -76 -295 -381 -411 -590 -370 -537 -452
-576 -40 -19 -73 -34 -75 -32 -2 2 51 144 139 364 27 68 49 134 49 147 0 14
-10 30 -24 39 -31 21 -25 23 -381 -115 -374 -145 -518 -198 -580 -217 -53 -16
-130 -13 -255 10 l-65 13 130 85 c72 47 245 155 385 239 140 84 305 183 365
220 442 269 1212 722 1345 790 110 57 238 72 342 40z m-2127 -360 c110 -29
279 -73 375 -100 96 -26 190 -51 208 -55 17 -4 32 -10 32 -14 0 -11 -318 -203
-329 -199 -23 9 -581 384 -581 391 0 12 62 37 80 32 8 -2 105 -27 215 -55z
m-508 -757 c68 -21 123 -41 123 -44 0 -5 -87 -69 -95 -69 -4 0 -105 85 -169
142 -19 16 20 8 141 -29z"/>
<path d="M1244 3568 c-138 -142 -236 -284 -333 -480 -144 -293 -210 -615 -198
-972 9 -287 60 -488 192 -761 279 -576 785 -966 1400 -1080 140 -26 476 -32
607 -11 266 44 505 133 722 269 446 279 742 685 845 1158 32 150 44 314 38
529 -8 314 -49 531 -148 780 -38 97 -149 313 -173 338 -5 4 -136 -78 -136 -85
0 -3 16 -31 35 -63 127 -209 217 -468 250 -717 17 -131 20 -449 5 -593 -30
-281 -142 -555 -323 -785 -49 -62 -105 -125 -112 -125 -3 0 -4 232 -3 515 3
475 2 516 -14 532 -13 13 -82 26 -290 55 -353 49 -980 136 -1083 149 l-80 11
-245 -80 c-135 -44 -321 -103 -415 -132 -172 -53 -224 -74 -237 -94 -4 -6 -8
-152 -8 -323 0 -172 -4 -313 -8 -313 -21 0 -188 62 -233 86 -79 43 -155 123
-192 201 -27 58 -32 81 -35 161 -6 156 39 303 143 462 47 73 215 250 305 322
l44 36 -37 56 c-23 34 -44 56 -56 56 -29 0 -98 -55 -208 -167 -203 -206 -309
-414 -337 -663 l-12 -105 -19 105 c-27 152 -32 458 -10 615 29 211 76 373 160
550 78 163 227 372 340 476 25 23 45 49 45 58 0 21 -80 101 -101 101 -8 0 -46
-33 -85 -72z m1905 -1593 c327 -47 597 -88 600 -91 7 -7 8 -639 1 -743 l-5
-74 -140 -28 c-77 -15 -341 -68 -587 -118 -246 -50 -454 -91 -462 -91 -14 0
-16 64 -16 615 0 338 3 615 8 615 4 0 274 -38 601 -85z m-759 -541 c0 -573 -1
-606 -17 -601 -10 2 -73 19 -140 38 l-123 32 0 527 0 527 128 40 c70 23 133
41 140 42 9 1 12 -126 12 -605z m-440 -9 c0 -261 -3 -475 -7 -475 -3 0 -60 14
-125 31 l-118 32 2 406 3 406 110 37 c61 20 116 37 123 37 9 1 12 -100 12
-474z m-692 -204 c67 -33 146 -60 222 -76 l55 -11 3 -112 c2 -103 4 -113 25
-126 43 -28 738 -216 887 -240 37 -6 302 42 850 155 450 93 561 118 576 130 9
7 14 8 14 1 0 -17 -241 -211 -335 -270 -182 -113 -388 -193 -610 -238 -127
-26 -481 -26 -610 -1 -421 83 -745 265 -1012 567 -81 92 -233 306 -233 329 0
6 25 -9 56 -34 30 -25 81 -58 112 -74z"/>
<path d="M2794 1789 c-18 -20 -19 -43 -22 -348 -2 -351 -1 -362 49 -390 22
-12 31 -12 57 -2 17 7 34 20 38 29 9 22 15 516 8 616 -5 58 -11 83 -25 97 -26
26 -81 25 -105 -2z"/>
<path d="M3145 1755 l-25 -24 0 -298 c0 -164 4 -303 8 -309 10 -15 47 -34 67
-34 9 0 27 11 40 25 l25 24 0 296 0 296 -25 24 c-13 14 -33 25 -45 25 -11 0
-32 -11 -45 -25z"/>
<path d="M3460 1720 c-19 -19 -20 -33 -20 -270 0 -237 1 -251 20 -270 26 -26
74 -26 100 0 19 19 20 33 20 268 0 247 0 249 -23 270 -29 27 -71 28 -97 2z"/>
</g>
</svg>
